<svg width="22" height="29" viewBox="0 0 22 29" fill="none" xmlns="http://www.w3.org/2000/svg">
<path d="M15.5566 20.2852C15.5566 19.2891 15.2051 18.5273 14.502 18C13.7988 17.4609 12.5332 16.8984 10.7051 16.3125C8.87695 15.7148 7.42969 15.1289 6.36328 14.5547C3.45703 12.9844 2.00391 10.8691 2.00391 8.20898C2.00391 6.82617 2.39062 5.5957 3.16406 4.51758C3.94922 3.42773 5.06836 2.57813 6.52148 1.96875C7.98633 1.35937 9.62695 1.05469 11.4434 1.05469C13.2715 1.05469 14.9004 1.38867 16.3301 2.05664C17.7598 2.71289 18.8672 3.64453 19.6523 4.85156C20.4492 6.05859 20.8477 7.42969 20.8477 8.96484H15.5742C15.5742 7.79297 15.2051 6.88477 14.4668 6.24023C13.7285 5.58398 12.6914 5.25586 11.3555 5.25586C10.0664 5.25586 9.06445 5.53125 8.34961 6.08203C7.63477 6.62109 7.27734 7.33594 7.27734 8.22656C7.27734 9.05859 7.69336 9.75586 8.52539 10.3184C9.36914 10.8809 10.6055 11.4082 12.2344 11.9004C15.2344 12.8027 17.4199 13.9219 18.791 15.2578C20.1621 16.5938 20.8477 18.2578 20.8477 20.25C20.8477 22.4648 20.0098 24.2051 18.334 25.4707C16.6582 26.7246 14.4023 27.3516 11.5664 27.3516C9.59766 27.3516 7.80469 26.9941 6.1875 26.2793C4.57031 25.5527 3.33398 24.5625 2.47852 23.3086C1.63477 22.0547 1.21289 20.6016 1.21289 18.9492H6.50391C6.50391 21.7734 8.19141 23.1855 11.5664 23.1855C12.8203 23.1855 13.7988 22.9336 14.502 22.4297C15.2051 21.9141 15.5566 21.1992 15.5566 20.2852Z" fill="white"/>
<path d="M14.502 18L13.8935 18.7937L13.902 18.8L14.502 18ZM10.7051 16.3125L10.3943 17.263L10.3999 17.2648L10.7051 16.3125ZM6.36328 14.5547L5.88791 15.4345L5.88918 15.4352L6.36328 14.5547ZM3.16406 4.51758L2.35269 3.93304L2.35152 3.93467L3.16406 4.51758ZM6.52148 1.96875L6.13739 1.04545L6.13476 1.04656L6.52148 1.96875ZM16.3301 2.05664L15.9068 2.96265L15.9129 2.96547L16.3301 2.05664ZM19.6523 4.85156L18.8141 5.39685L18.8178 5.40252L19.6523 4.85156ZM20.8477 8.96484V9.96484H21.8477V8.96484H20.8477ZM15.5742 8.96484H14.5742V9.96484H15.5742V8.96484ZM14.4668 6.24023L13.8024 6.98767L13.8091 6.99355L14.4668 6.24023ZM8.34961 6.08203L8.95173 6.8805L8.95995 6.87417L8.34961 6.08203ZM8.52539 10.3184L7.9653 11.1468L7.97069 11.1504L8.52539 10.3184ZM12.2344 11.9004L11.9451 12.8576L11.9463 12.858L12.2344 11.9004ZM18.334 25.4707L18.9331 26.2714L18.9367 26.2687L18.334 25.4707ZM6.1875 26.2793L5.77768 27.1915L5.78321 27.1939L6.1875 26.2793ZM2.47852 23.3086L1.64884 23.8669L1.65245 23.8722L2.47852 23.3086ZM1.21289 18.9492V17.9492H0.212891V18.9492H1.21289ZM6.50391 18.9492H7.50391V17.9492H6.50391V18.9492ZM14.502 22.4297L15.0845 23.2426L15.0933 23.2361L14.502 22.4297ZM16.5566 20.2852C16.5566 19.0223 16.093 17.9433 15.102 17.2L13.902 18.8C14.3172 19.1114 14.5566 19.5558 14.5566 20.2852H16.5566ZM15.1104 17.2064C14.2601 16.5545 12.8504 15.95 11.0103 15.3602L10.3999 17.2648C12.216 17.8469 13.3376 18.3674 13.8935 18.7936L15.1104 17.2064ZM11.0158 15.362C9.2154 14.7734 7.83035 14.2089 6.83738 13.6742L5.88918 15.4352C7.02903 16.0489 8.53851 16.6563 10.3943 17.263L11.0158 15.362ZM6.83865 13.6749C4.16322 12.2293 3.00391 10.4075 3.00391 8.20898H1.00391C1.00391 11.3308 2.75084 13.7394 5.88791 15.4345L6.83865 13.6749ZM3.00391 8.20898C3.00391 7.0259 3.33043 6.00121 3.9766 5.10049L2.35152 3.93467C1.45082 5.1902 1.00391 6.62644 1.00391 8.20898H3.00391ZM3.97543 5.10211C4.63541 4.18602 5.59523 3.44155 6.90821 2.89094L6.13476 1.04656C4.54149 1.7147 3.26303 2.66945 2.35269 3.93304L3.97543 5.10211ZM6.90558 2.89205C8.23234 2.34011 9.73983 2.05469 11.4434 2.05469V0.0546875C9.51408 0.0546875 7.74032 0.378637 6.13739 1.04545L6.90558 2.89205ZM11.4434 2.05469C13.1483 2.05469 14.6291 2.36566 15.9068 2.96263L16.7534 1.15065C15.1717 0.411682 13.3947 0.0546875 11.4434 0.0546875V2.05469ZM15.9129 2.96547C17.1872 3.55038 18.1416 4.36294 18.8141 5.39684L20.4906 4.30629C19.5928 2.92612 18.3324 1.8754 16.7472 1.14781L15.9129 2.96547ZM18.8178 5.40252C19.5 6.43583 19.8477 7.61294 19.8477 8.96484H21.8477C21.8477 7.24643 21.3984 5.68136 20.4869 4.30061L18.8178 5.40252ZM20.8477 7.96484H15.5742V9.96484H20.8477V7.96484ZM16.5742 8.96484C16.5742 7.56614 16.1229 6.3586 15.1245 5.48692L13.8091 6.99355C14.2872 7.41093 14.5742 8.0198 14.5742 8.96484H16.5742ZM15.1312 5.49283C14.1537 4.624 12.8491 4.25586 11.3555 4.25586V6.25586C12.5337 6.25586 13.3033 6.54397 13.8024 6.98764L15.1312 5.49283ZM11.3555 4.25586C9.93752 4.25586 8.69005 4.55732 7.73927 5.28989L8.95995 6.87417C9.43885 6.50518 10.1953 6.25586 11.3555 6.25586V4.25586ZM7.74752 5.2836C6.78366 6.01045 6.27734 7.02015 6.27734 8.22656H8.27734C8.27734 7.65172 8.48587 7.23174 8.9517 6.88046L7.74752 5.2836ZM6.27734 8.22656C6.27734 9.46226 6.92335 10.4424 7.96532 11.1468L9.08546 9.48992C8.46337 9.06935 8.27734 8.65493 8.27734 8.22656H6.27734ZM7.97069 11.1504C8.93306 11.792 10.2766 12.3535 11.9451 12.8576L12.5236 10.9431C10.9343 10.4629 9.80522 9.96973 9.08009 9.48631L7.97069 11.1504ZM11.9463 12.858C14.8792 13.7402 16.8883 14.8001 18.0932 15.974L19.4889 14.5416C17.9516 13.0437 15.5895 11.8653 12.5224 10.9428L11.9463 12.858ZM18.0932 15.974C19.2624 17.1133 19.8477 18.5152 19.8477 20.25H21.8477C21.8477 18.0004 21.0618 16.0742 19.4889 14.5416L18.0932 15.974ZM19.8477 20.25C19.8477 22.1713 19.1413 23.6078 17.7313 24.6727L18.9367 26.2687C20.8782 24.8023 21.8477 22.7584 21.8477 20.25H19.8477ZM17.7349 24.67C16.2841 25.7555 14.262 26.3516 11.5664 26.3516V28.3516C14.5426 28.3516 17.0323 27.6937 18.9331 26.2714L17.7349 24.67ZM11.5664 26.3516C9.72103 26.3516 8.06788 26.0171 6.59179 25.3647L5.78321 27.1939C7.5415 27.9711 9.47428 28.3516 11.5664 28.3516V26.3516ZM6.59731 25.3671C5.11969 24.7033 4.0397 23.8225 3.30458 22.745L1.65245 23.8722C2.62827 25.3025 4.02094 26.4022 5.77769 27.1915L6.59731 25.3671ZM3.30817 22.7503C2.5858 21.6768 2.21289 20.422 2.21289 18.9492H0.212891C0.212891 20.7811 0.683728 22.4326 1.64886 23.8669L3.30817 22.7503ZM1.21289 19.9492H6.50391V17.9492H1.21289V19.9492ZM5.50391 18.9492C5.50391 20.5669 5.99568 21.946 7.12778 22.8934C8.22575 23.8122 9.76388 24.1855 11.5664 24.1855V22.1855C9.99393 22.1855 9.00082 21.8529 8.41129 21.3596C7.85588 20.8948 7.50391 20.1558 7.50391 18.9492H5.50391ZM11.5664 24.1855C12.9393 24.1855 14.1506 23.9118 15.0845 23.2425L13.9194 21.6169C13.447 21.9554 12.7014 22.1855 11.5664 22.1855V24.1855ZM15.0933 23.2361C16.0676 22.5217 16.5566 21.4997 16.5566 20.2852H14.5566C14.5566 20.8988 14.3426 21.3065 13.9106 21.6233L15.0933 23.2361Z" fill="#383838"/>
</svg>
