<svg width="27" height="27" viewBox="0 0 27 27" fill="none" xmlns="http://www.w3.org/2000/svg">
<path d="M8.91964 15.1875H6.50893C6.11116 15.1875 5.78571 14.9027 5.78571 14.5547V12.4453C5.78571 12.0973 6.11116 11.8125 6.50893 11.8125H8.91964C9.31741 11.8125 9.64286 12.0973 9.64286 12.4453V14.5547C9.64286 14.9027 9.31741 15.1875 8.91964 15.1875ZM15.4286 14.5547V12.4453C15.4286 12.0973 15.1031 11.8125 14.7054 11.8125H12.2946C11.8969 11.8125 11.5714 12.0973 11.5714 12.4453V14.5547C11.5714 14.9027 11.8969 15.1875 12.2946 15.1875H14.7054C15.1031 15.1875 15.4286 14.9027 15.4286 14.5547ZM21.2143 14.5547V12.4453C21.2143 12.0973 20.8888 11.8125 20.4911 11.8125H18.0804C17.6826 11.8125 17.3571 12.0973 17.3571 12.4453V14.5547C17.3571 14.9027 17.6826 15.1875 18.0804 15.1875H20.4911C20.8888 15.1875 21.2143 14.9027 21.2143 14.5547ZM15.4286 19.6172V17.5078C15.4286 17.1598 15.1031 16.875 14.7054 16.875H12.2946C11.8969 16.875 11.5714 17.1598 11.5714 17.5078V19.6172C11.5714 19.9652 11.8969 20.25 12.2946 20.25H14.7054C15.1031 20.25 15.4286 19.9652 15.4286 19.6172ZM9.64286 19.6172V17.5078C9.64286 17.1598 9.31741 16.875 8.91964 16.875H6.50893C6.11116 16.875 5.78571 17.1598 5.78571 17.5078V19.6172C5.78571 19.9652 6.11116 20.25 6.50893 20.25H8.91964C9.31741 20.25 9.64286 19.9652 9.64286 19.6172ZM21.2143 19.6172V17.5078C21.2143 17.1598 20.8888 16.875 20.4911 16.875H18.0804C17.6826 16.875 17.3571 17.1598 17.3571 17.5078V19.6172C17.3571 19.9652 17.6826 20.25 18.0804 20.25H20.4911C20.8888 20.25 21.2143 19.9652 21.2143 19.6172ZM27 5.90625V24.4688C27 25.8662 25.7042 27 24.1071 27H2.89286C1.29576 27 0 25.8662 0 24.4688V5.90625C0 4.50879 1.29576 3.375 2.89286 3.375H5.78571V0.632812C5.78571 0.284766 6.11116 0 6.50893 0H8.91964C9.31741 0 9.64286 0.284766 9.64286 0.632812V3.375H17.3571V0.632812C17.3571 0.284766 17.6826 0 18.0804 0H20.4911C20.8888 0 21.2143 0.284766 21.2143 0.632812V3.375H24.1071C25.7042 3.375 27 4.50879 27 5.90625ZM24.1071 24.1523V8.4375H2.89286V24.1523C2.89286 24.3264 3.05558 24.4688 3.25446 24.4688H23.7455C23.9444 24.4688 24.1071 24.3264 24.1071 24.1523Z" fill="#9A9A9A"/>
</svg>
